<svg width="314" height="36" viewBox="0 0 314 36" fill="none" xmlns="http://www.w3.org/2000/svg">
    <rect width="314" height="36" fill="#DC2A1E"/>
    <path d="M34.6267 28H27.2347V9.496H37.4107V13.192H30.9307V15.04H34.6267C35.1227 15.04 35.5947 15.144 36.0427 15.352C36.5067 15.544 36.9067 15.808 37.2427 16.144C37.5787 16.48 37.8427 16.88 38.0347 17.344C38.2427 17.792 38.3467 18.264 38.3467 18.76V24.304C38.3467 24.816 38.2427 25.296 38.0347 25.744C37.8427 26.192 37.5787 26.584 37.2427 26.92C36.9067 27.256 36.5067 27.52 36.0427 27.712C35.5947 27.904 35.1227 28 34.6267 28ZM34.6267 24.304V18.76H30.9307V24.304H34.6267ZM42.0472 25.888L46.7512 9.496H50.2792L55.0072 25.888V28H51.2872V26.416L50.6872 24.304H46.3432L45.7432 26.416V28H42.0472V25.888ZM49.6312 20.608L48.5272 16.768L47.4232 20.608H49.6312ZM69.8233 28H66.1033V20.2L62.6953 28H58.7113V9.496H62.4073V19.408L66.1033 10.96V9.496H69.8233V28ZM64.2553 8.56C64.7673 8.56 65.2473 8.464 65.6953 8.272C66.1433 8.08 66.5353 7.816 66.8713 7.48C67.2073 7.144 67.4713 6.752 67.6633 6.304C67.8553 5.856 67.9513 5.376 67.9513 4.864H66.1033C66.1033 5.376 65.9193 5.816 65.5513 6.184C65.1993 6.536 64.7673 6.712 64.2553 6.712C63.7433 6.712 63.3033 6.536 62.9353 6.184C62.5833 5.816 62.4073 5.376 62.4073 4.864H60.5593C60.5593 5.376 60.6553 5.856 60.8473 6.304C61.0393 6.752 61.3033 7.144 61.6393 7.48C61.9753 7.816 62.3673 8.08 62.8153 8.272C63.2633 8.464 63.7433 8.56 64.2553 8.56ZM84.6358 9.496V13.192H83.8918L80.9878 18.76L83.8918 24.304H84.6358V28H82.7638C82.4278 28 82.1158 27.92 81.8278 27.76C81.5398 27.584 81.3078 27.336 81.1318 27.016L77.7718 20.608H77.2198V28H73.5238V9.496H77.2198V16.888H77.7718L81.1318 10.48C81.3078 10.16 81.5398 9.92 81.8278 9.76C82.1158 9.584 82.4278 9.496 82.7638 9.496H84.6358ZM95.7283 28H92.0323C91.5203 28 91.0403 27.904 90.5923 27.712C90.1443 27.52 89.7523 27.256 89.4163 26.92C89.0803 26.584 88.8163 26.192 88.6243 25.744C88.4323 25.296 88.3363 24.816 88.3363 24.304V13.192C88.3363 12.68 88.4323 12.2 88.6243 11.752C88.8163 11.304 89.0803 10.912 89.4163 10.576C89.7523 10.24 90.1443 9.976 90.5923 9.784C91.0403 9.592 91.5203 9.496 92.0323 9.496H95.7283C96.2243 9.496 96.6963 9.592 97.1443 9.784C97.6083 9.976 98.0083 10.24 98.3443 10.576C98.6803 10.912 98.9443 11.304 99.1363 11.752C99.3443 12.2 99.4483 12.68 99.4483 13.192V24.304C99.4483 24.816 99.3443 25.296 99.1363 25.744C98.9443 26.192 98.6803 26.584 98.3443 26.92C98.0083 27.256 97.6083 27.52 97.1443 27.712C96.6963 27.904 96.2243 28 95.7283 28ZM95.7283 13.192H92.0323V24.304H95.7283V13.192ZM106.845 16.888H110.541V9.496H114.261V28H110.541V20.608H106.845V28H103.149V9.496H106.845V16.888ZM129.073 9.496V16.888V24.304C129.073 24.816 128.969 25.296 128.761 25.744C128.569 26.192 128.305 26.584 127.969 26.92C127.633 27.256 127.233 27.52 126.769 27.712C126.321 27.904 125.849 28 125.353 28H121.657C121.145 28 120.665 27.904 120.217 27.712C119.769 27.52 119.377 27.256 119.041 26.92C118.705 26.584 118.441 26.192 118.249 25.744C118.057 25.296 117.961 24.816 117.961 24.304V22.456H121.657V24.304H125.353V20.608H121.657C121.145 20.608 120.665 20.512 120.217 20.32C119.769 20.112 119.377 19.84 119.041 19.504C118.705 19.168 118.441 18.776 118.249 18.328C118.057 17.88 117.961 17.4 117.961 16.888V9.496H121.657V16.888H125.353V9.496H129.073ZM140.166 22.456H136.47V28H132.774V9.496H140.166C140.662 9.496 141.134 9.592 141.582 9.784C142.046 9.976 142.446 10.24 142.782 10.576C143.118 10.912 143.382 11.304 143.574 11.752C143.782 12.2 143.886 12.68 143.886 13.192V18.76C143.886 19.272 143.782 19.752 143.574 20.2C143.382 20.648 143.118 21.04 142.782 21.376C142.446 21.712 142.046 21.976 141.582 22.168C141.134 22.36 140.662 22.456 140.166 22.456ZM140.166 13.192H136.47V18.76H140.166V13.192ZM146.458 23.032V20.104H152.746V23.032H146.458ZM166.145 9.496H170.129V28H166.433V21.496L164.465 28H160.985L159.017 21.496V28H155.321V9.496H159.281L162.713 20.944L166.145 9.496ZM181.228 28H177.532C177.02 28 176.54 27.904 176.092 27.712C175.644 27.52 175.252 27.256 174.916 26.92C174.58 26.584 174.316 26.192 174.124 25.744C173.932 25.296 173.836 24.816 173.836 24.304V13.192C173.836 12.68 173.932 12.2 174.124 11.752C174.316 11.304 174.58 10.912 174.916 10.576C175.252 10.24 175.644 9.976 176.092 9.784C176.54 9.592 177.02 9.496 177.532 9.496H181.228C181.724 9.496 182.196 9.592 182.644 9.784C183.108 9.976 183.508 10.24 183.844 10.576C184.18 10.912 184.444 11.304 184.636 11.752C184.844 12.2 184.948 12.68 184.948 13.192V24.304C184.948 24.816 184.844 25.296 184.636 25.744C184.444 26.192 184.18 26.584 183.844 26.92C183.508 27.256 183.108 27.52 182.644 27.712C182.196 27.904 181.724 28 181.228 28ZM181.228 13.192H177.532V24.304H181.228V13.192ZM196.041 28H192.345C191.833 28 191.353 27.904 190.905 27.712C190.457 27.52 190.065 27.256 189.729 26.92C189.393 26.584 189.129 26.192 188.937 25.744C188.745 25.296 188.649 24.816 188.649 24.304V13.192C188.649 12.68 188.745 12.2 188.937 11.752C189.129 11.304 189.393 10.912 189.729 10.576C190.065 10.24 190.457 9.976 190.905 9.784C191.353 9.592 191.833 9.496 192.345 9.496H196.041C196.537 9.496 197.009 9.592 197.457 9.784C197.921 9.976 198.321 10.24 198.657 10.576C198.993 10.912 199.257 11.304 199.449 11.752C199.657 12.2 199.761 12.68 199.761 13.192V15.04H196.041V13.192H192.345V24.304H196.041V22.456H199.761V24.304C199.761 24.816 199.657 25.296 199.449 25.744C199.257 26.192 198.993 26.584 198.657 26.92C198.321 27.256 197.921 27.52 197.457 27.712C197.009 27.904 196.537 28 196.041 28ZM214.573 9.496V13.192H213.829L210.925 18.76L213.829 24.304H214.573V28H212.701C212.365 28 212.053 27.92 211.765 27.76C211.477 27.584 211.245 27.336 211.069 27.016L207.709 20.608H207.157V28H203.461V9.496H207.157V16.888H207.709L211.069 10.48C211.245 10.16 211.477 9.92 211.765 9.76C212.053 9.584 212.365 9.496 212.701 9.496H214.573ZM225.666 28H218.274V9.496H224.754C225.266 9.496 225.746 9.592 226.194 9.784C226.642 9.976 227.034 10.24 227.37 10.576C227.706 10.912 227.97 11.304 228.162 11.752C228.354 12.2 228.45 12.68 228.45 13.192V16.888C228.45 17.336 228.394 17.704 228.282 17.992C228.618 18.328 228.882 18.72 229.074 19.168C229.282 19.616 229.386 20.096 229.386 20.608V24.304C229.386 24.816 229.282 25.296 229.074 25.744C228.882 26.192 228.618 26.584 228.282 26.92C227.946 27.256 227.546 27.52 227.082 27.712C226.634 27.904 226.162 28 225.666 28ZM225.666 24.304V20.608H221.97V24.304H225.666ZM224.754 13.192H221.97V16.888H224.754V13.192ZM233.086 25.888L237.79 9.496H241.318L246.046 25.888V28H242.326V26.416L241.726 24.304H237.382L236.782 26.416V28H233.086V25.888ZM240.67 20.608L239.566 16.768L238.462 20.608H240.67ZM249.75 24.304H253.446V28H249.75V24.304ZM264.525 22.456H260.829V28H257.133V9.496H264.525C265.021 9.496 265.493 9.592 265.941 9.784C266.405 9.976 266.805 10.24 267.141 10.576C267.477 10.912 267.741 11.304 267.933 11.752C268.141 12.2 268.245 12.68 268.245 13.192V18.76C268.245 19.272 268.141 19.752 267.933 20.2C267.741 20.648 267.477 21.04 267.141 21.376C266.805 21.712 266.405 21.976 265.941 22.168C265.493 22.36 265.021 22.456 264.525 22.456ZM264.525 13.192H260.829V18.76H264.525V13.192ZM275.642 9.496H283.058C283.57 9.496 284.05 9.592 284.498 9.784C284.946 9.976 285.338 10.24 285.674 10.576C286.01 10.912 286.274 11.304 286.466 11.752C286.658 12.2 286.754 12.68 286.754 13.192V18.76C286.754 19.272 286.658 19.752 286.466 20.2C286.274 20.648 286.01 21.04 285.674 21.376C285.338 21.712 284.946 21.976 284.498 22.168C284.05 22.36 283.57 22.456 283.058 22.456H281.186V28H277.49V22.456H275.642C275.13 22.456 274.65 22.36 274.202 22.168C273.754 21.976 273.362 21.712 273.026 21.376C272.69 21.04 272.426 20.648 272.234 20.2C272.042 19.752 271.946 19.272 271.946 18.76V13.192C271.946 12.68 272.042 12.2 272.234 11.752C272.426 11.304 272.69 10.912 273.026 10.576C273.362 10.24 273.754 9.976 274.202 9.784C274.65 9.592 275.13 9.496 275.642 9.496ZM275.642 13.192V18.76H277.49V13.192H275.642ZM281.186 18.76H283.058V13.192H281.186V18.76Z" fill="white"/>
</svg>
